<svg height="800px" width="800px" version="1.1" id="Layer_1" xmlns="http://www.w3.org/2000/svg" xmlns:xlink="http://www.w3.org/1999/xlink" 
	 viewBox="0 0 512 512" xml:space="preserve">
<g>
	<g>
		<path d="M256,288.3c-54,0-97.8,43.8-97.8,97.8c0,6.5,0.6,12.8,1.8,19c0.3,1.5,1.7,2.6,3.2,2.6h185.5c1.5,0,2.9-1.1,3.2-2.6
			c1.2-6.1,1.8-12.5,1.8-19C353.8,332.1,310,288.3,256,288.3z"/>
	</g>
</g>
<g>
	<g>
		<path d="M256,103.5c-49.7,0-90,40.3-90,90s40.3,90,90,90s90-40.3,90-90S305.7,103.5,256,103.5z"/>
	</g>
</g>
<g>
	<g>
		<path d="M256,0C114.6,0,0,114.6,0,256s114.6,256,256,256s256-114.6,256-256S397.4,0,256,0z M256,462.2
			c-27.3,0-52.4-5.2-74.7-14.4c-10.1-4.2-15.2-15.7-11-25.8c10.1-24.4,34.6-41.2,62.6-41.2h46.2c28,0,52.5,16.8,62.6,41.2
			c4.2,10.1-0.9,21.6-11,25.8C308.4,457,283.3,462.2,256,462.2z M346,283.5c-22.2,22.2-52.1,35.5-85.5,35.5h-9
			c-33.4,0-63.3-13.3-85.5-35.5C143.3,261.3,130,231.4,130,198s13.3-63.3,35.5-85.5S209.8,77,243.2,77h9
			c33.4,0,63.3,13.3,85.5,35.5s35.5,52.1,35.5,85.5S368.2,261.3,346,283.5z"/>
	</g>
</g>
</svg>